<?xml version="1.0" encoding="utf-8"?>
<!-- Generator: Adobe Illustrator 15.0.0, SVG Export Plug-In . SVG Version: 6.00 Build 0)  -->
<!DOCTYPE svg PUBLIC "-//W3C//DTD SVG 1.1//EN" "http://www.w3.org/Graphics/SVG/1.1/DTD/svg11.dtd">
<svg version="1.1" id="Calque_1" xmlns="http://www.w3.org/2000/svg" xmlns:xlink="http://www.w3.org/1999/xlink" x="0px" y="0px"
	 width="150px" height="50px" viewBox="-218.628 -172.027 150 50" enable-background="new -218.628 -172.027 150 50"
	 xml:space="preserve">
<path fill="#5F6469" d="M-185.277-143.56c0,1.015-0.168,1.963-0.503,2.845c-0.336,0.882-0.797,1.684-1.383,2.408
	c-0.587,0.723-1.271,1.368-2.05,1.933c-0.779,0.566-1.618,1.04-2.515,1.423c-0.897,0.382-1.824,0.669-2.779,0.86
	c-0.956,0.191-1.895,0.287-2.817,0.287h-21.304v-35.925h19.467c0.855,0,1.752,0.062,2.691,0.187
	c0.938,0.125,1.857,0.321,2.754,0.586c0.896,0.266,1.752,0.615,2.565,1.048c0.813,0.433,1.526,0.96,2.138,1.584
	c0.612,0.624,1.098,1.343,1.459,2.158c0.36,0.815,0.541,1.746,0.541,2.794c0,0.998-0.201,1.904-0.603,2.719
	c-0.403,0.815-0.944,1.542-1.623,2.183c-0.679,0.64-1.458,1.206-2.339,1.696c-0.88,0.491-1.807,0.919-2.779,1.285
	c1.224,0.333,2.385,0.773,3.483,1.322c1.099,0.549,2.063,1.223,2.893,2.021c0.83,0.799,1.488,1.743,1.975,2.832
	C-185.52-146.224-185.277-144.972-185.277-143.56z M-197.149-160.499c0-2.029-0.541-3.509-1.622-4.441
	c-1.082-0.931-2.62-1.397-4.616-1.397h-5.256v11.651h4.401c0.906,0,1.786-0.112,2.641-0.337c0.855-0.225,1.613-0.574,2.276-1.048
	s1.191-1.077,1.585-1.809C-197.346-158.61-197.149-159.483-197.149-160.499z M-195.388-144.183c0-0.981-0.126-1.9-0.377-2.757
	c-0.251-0.856-0.638-1.596-1.157-2.22c-0.52-0.624-1.17-1.114-1.95-1.472c-0.779-0.358-1.698-0.537-2.754-0.537h-7.017v13.871h6.137
	c1.022,0,1.97-0.166,2.842-0.499c0.872-0.333,1.626-0.798,2.264-1.397c0.637-0.599,1.132-1.322,1.483-2.17
	C-195.564-142.212-195.388-143.151-195.388-144.183z"/>
<path fill="#5F6469" d="M-154.76-133.804h-26.007v-35.925h9.985v31.359h16.021V-133.804z"/>
<path fill="#5F6469" d="M-68.628-160.823l-4.301,1.796c-0.336-1.081-0.784-2.071-1.346-2.969s-1.232-1.667-2.012-2.307
	c-0.78-0.641-1.665-1.14-2.654-1.497c-0.989-0.357-2.071-0.537-3.244-0.537c-1.257,0-2.411,0.208-3.458,0.624
	c-1.048,0.416-1.987,0.977-2.817,1.684s-1.555,1.534-2.176,2.482c-0.621,0.948-1.136,1.958-1.546,3.031
	c-0.411,1.073-0.721,2.183-0.931,3.331c-0.21,1.147-0.314,2.27-0.314,3.368c0,1.747,0.205,3.485,0.616,5.214
	c0.411,1.73,1.064,3.285,1.961,4.665c0.897,1.381,2.059,2.499,3.483,3.355c1.425,0.857,3.153,1.285,5.182,1.285
	c1.107,0,1.97-0.245,2.591-0.736c0.62-0.49,0.931-1.351,0.931-2.582v-11.028h9.985v17.838h-2.892l-1.761-2.819
	c-1.61,1.214-3.383,2.108-5.319,2.682c-1.937,0.574-3.911,0.86-5.924,0.86c-1.777,0-3.483-0.216-5.118-0.648
	c-1.635-0.433-3.157-1.048-4.565-1.846c-1.409-0.799-2.688-1.763-3.836-2.894c-1.149-1.131-2.129-2.386-2.942-3.767
	c-0.814-1.38-1.442-2.881-1.887-4.503c-0.445-1.622-0.667-3.314-0.667-5.077c0-1.762,0.222-3.455,0.667-5.077
	c0.444-1.622,1.073-3.126,1.887-4.515c0.813-1.389,1.793-2.648,2.942-3.78c1.148-1.131,2.427-2.096,3.836-2.894
	c1.409-0.798,2.931-1.414,4.565-1.846s3.341-0.649,5.118-0.649c1.71,0,3.383,0.2,5.019,0.599c1.635,0.399,3.157,1.002,4.565,1.809
	c1.409,0.807,2.662,1.821,3.76,3.043C-70.134-163.904-69.266-162.469-68.628-160.823z"/>
<path fill="#FFAB40" d="M-124.91-165.068c1.777-0.507,3.659-0.29,5.299,0.61c1.641,0.901,2.826,2.366,3.337,4.129l2.557,8.814
	c0.511,1.762,0.292,3.629-0.615,5.256c-0.907,1.627-2.386,2.802-4.163,3.31l-18.409,5.252c-1.777,0.507-3.659,0.291-5.299-0.61
	c-1.641-0.9-2.825-2.367-3.336-4.129l-2.556-8.814c-0.511-1.762-0.292-3.629,0.615-5.256c0.907-1.627,2.385-2.802,4.163-3.31
	L-124.91-165.068 M-126.774-171.499l-18.408,5.251c-7.255,2.07-11.482,9.651-9.396,16.846l2.556,8.815
	c2.086,7.194,9.729,11.389,16.984,9.319l18.409-5.252c7.254-2.069,11.482-9.651,9.395-16.846l-2.556-8.814
	C-111.877-169.375-119.519-173.568-126.774-171.499L-126.774-171.499z"/>
<path fill="#FFAB40" d="M-139.862-122.027c0,0,11.358-8.618,9.755-14.145l-9.613,2.743
	C-139.72-133.43-138.132-128.164-139.862-122.027z"/>
</svg>
